<svg xmlns="http://www.w3.org/2000/svg" width="512" height="512" viewBox="0 0 512 512">
  <rect width="512" height="512" fill="#14110f"/>
  <path fill="#ff5a1f" d="M282 60c34 58 8 92-18 122-30 34-58 66-58 118 0 15 5 30 14 42-38-16-64-56-64-104 0-8 1-16 3-24-16 14-27 36-27 66 0 78 61 132 132 132 76 0 132-54 132-124 0-64-38-104-58-146-16-34-24-68-58-82z"/>
  <path fill="#ffb000" d="M270 250c20 26 44 42 44 84 0 34-26 58-58 58s-54-24-54-56c0-30 18-48 34-66 14-16 22-34 20-52 8 10 8 22 14 32z"/>
</svg>
